<?xml version="1.0" encoding="UTF-8"?>
<svg id="Capa_2" data-name="Capa 2" xmlns="http://www.w3.org/2000/svg" viewBox="0 0 764.67 427.6">
  <defs>
    <style>
      .cls-1, .cls-2 {
        fill: #0c0b0c;
      }

      .cls-2 {
        font-family: BankGothicBT-Light, 'BankGothic Lt BT';
        font-size: 44.6px;
        font-weight: 300;
      }

      .cls-3 {
        fill: #28a992;
      }
    </style>
  </defs>
  <g id="Capa_1-2" data-name="Capa 1">
    <g>
      <g>
        <g>
          <g>
            <polygon class="cls-1" points="159.25 115.29 137.32 115.29 149.02 90.1 170.25 90.1 159.25 115.29"/>
            <polygon class="cls-1" points="200.68 22.36 179.65 69.26 158.69 69.26 190.84 0 212.04 0 244.62 69.26 221.08 69.26 200.68 22.36"/>
            <polygon class="cls-1" points="241.57 115.29 230.21 90.1 254.42 90.1 266.27 115.29 241.57 115.29"/>
            <path class="cls-1" d="m402.87,37.41h-22.01v-16.79h-59.33v72.97h59.33c-.02-6.39-.03-12.78-.05-19.17,7.36,0,14.71-.02,22.07-.03v13.64c0,10.54-1.63,17.72-4.88,21.54-3.25,3.82-9.44,5.73-18.57,5.73h-56.47c-9.19,0-15.39-1.91-18.61-5.73-3.22-3.82-4.83-11-4.83-21.54V27.27c0-10.47,1.61-17.63,4.83-21.49C307.57,1.93,313.78,0,322.96,0h56.47c9.13,0,15.32,1.93,18.57,5.78,3.25,3.85,4.88,11.02,4.88,21.49v10.14Z"/>
            <path class="cls-1" d="m551.05,115.29l.02-71.89c0-3.1-4.1-4.2-5.65-1.52-11.1,19.2-22.2,38.41-33.3,57.61-.54.94-1.54,1.51-2.62,1.51h-.89c-1.07,0-2.05-.56-2.6-1.48l-34.76-58.17c-1.58-2.64-5.63-1.52-5.63,1.55v72.38h-17.54V0h17.81l41.98,65.66c1.2,1.88,3.94,1.86,5.12-.03L554.02,0h17.63v115.29h-20.59Z"/>
          </g>
          <g>
            <path class="cls-1" d="m0,253.45v-100.9h19.27v79.15c0,1.52,1.23,2.76,2.76,2.76h59.34v19H0Z"/>
            <path class="cls-1" d="m641.79,189.35h-36.02c-1.1,0-1.99.89-1.99,1.99v45.21c0,1.1.89,1.99,1.99,1.99h36.01c1.1,0,1.99-.89,1.99-1.99l-.03-10.93,14.87-.02v9.19c0,7.11-1.1,11.95-3.29,14.52-2.19,2.57-6.36,3.86-12.52,3.86h-38.06c-6.19,0-10.38-1.29-12.55-3.86-2.17-2.57-3.26-7.41-3.26-14.52v-40.96c0-7.06,1.09-11.89,3.26-14.49s6.35-3.9,12.55-3.9h38.06c6.15,0,10.33,1.3,12.52,3.9,2.19,2.6,3.29,7.43,3.29,14.49v6.84h-14.84v-9.33c0-1.1-.89-1.99-1.99-1.99Z"/>
            <path class="cls-1" d="m321.18,253.17v-77.72h14.84v77.72h-14.84Z"/>
            <path class="cls-1" d="m421.74,189.05h-37.72c-1.06,0-1.92.86-1.92,1.92v12.85c0,1.06.86,1.92,1.92,1.92h37.83c6.23,0,10.45,1.3,12.64,3.9,2.19,2.6,3.29,7.43,3.29,14.49v10.66c0,7.06-1.1,11.89-3.29,14.49-2.19,2.6-6.4,3.9-12.64,3.9h-39.39c-6.23,0-10.45-1.3-12.64-3.9-2.2-2.6-3.29-7.43-3.29-14.49v-2.13c4.36,0,8.73-.02,13.09-.03v3.87c0,1.13.91,2.04,2.04,2.04h41.08c1.07,0,1.94-.87,1.94-1.94v-13.85c0-1.07-.87-1.94-1.94-1.94h-37.82c-6.19,0-10.38-1.3-12.55-3.9-2.17-2.6-3.26-7.43-3.26-14.49v-8.6c0-7.06,1.09-11.89,3.26-14.49,2.17-2.6,6.35-3.9,12.55-3.9h36.19c5.99,0,10.12,1.25,12.4,3.75,2.27,2.5,3.41,6.94,3.41,13.31v1.62c-4.38,0-8.76-.01-13.14-.02l.03-2.95c.01-1.16-.93-2.11-2.09-2.11Z"/>
            <path class="cls-1" d="m498.22,191.37v61.8h-14.84v-61.8c0-1.12-.91-2.02-2.02-2.02h-27.23v-13.9h73.47v13.9h-27.36c-1.12,0-2.02.91-2.02,2.02Z"/>
            <path class="cls-1" d="m545.76,253.17v-77.72h14.84v77.72h-14.84Z"/>
            <g>
              <path class="cls-1" d="m706.28,222.14l12.24-27.31c.74-1.65,3.09-1.64,3.82.02l11.87,27.29h15.87l-21.96-46.69h-14.3l-21.67,46.69h14.13Z"/>
              <polygon class="cls-1" points="677.74 253.17 692.52 253.17 699.94 236.19 685.63 236.19 677.74 253.17"/>
              <polygon class="cls-1" points="756.68 236.19 740.36 236.19 748.02 253.17 764.67 253.17 756.68 236.19"/>
            </g>
            <path class="cls-1" d="m273.36,174.15h-43.5c-6.13,0-10.26,1.34-12.41,4.03-2.15,2.69-3.22,7.68-3.22,14.97v42.33c0,7.35,1.07,12.35,3.22,15.01,2.15,2.66,6.28,3.99,12.41,3.99h43.5c6.13,0,10.26-1.33,12.41-3.99,2.15-2.66,3.22-7.66,3.22-15.01v-25.79c0-1.03-.84-1.87-1.87-1.87h-36.38v13.68h22.09c1.05,0,1.89.82,1.89,1.84v13.96c0,1.14-.92,2.06-2.06,2.06h-41.87c-1.05,0-1.89-.82-1.89-1.84v-47.17c0-1.01.85-1.84,1.89-1.84h42.04c1.05,0,1.89.82,1.89,1.84v4.03c4.75.04,9.51.08,14.26.12v-2.11c0-6.89-1.09-11.65-3.28-14.29-2.19-2.63-6.31-3.95-12.35-3.95Z"/>
          </g>
        </g>
        <path class="cls-3" d="m147.8,164.02c-28.49,0-51.59,23.1-51.59,51.59s23.1,51.59,51.59,51.59,51.59-23.1,51.59-51.59-23.1-51.59-51.59-51.59Zm-32.27,77.72l21.27-26.13-21.27-26.12h15.65l21.27,26.12-21.27,26.13h-15.65Zm43.27,0h-15.65l21.27-26.13-21.27-26.12h15.65l21.27,26.12-21.27,26.13Z"/>
      </g>
      <text class="cls-2" transform="translate(223.67 363.56)"><tspan x="0" y="0">una empresa </tspan><tspan x="34.56" y="53.52">bob group</tspan></text>
    </g>
  </g>
</svg>